<svg width="75" height="35" viewBox="0 0 75 35" xmlns="http://www.w3.org/2000/svg"><title>1CEC5C93-7CBE-4978-8123-5B1DFAA2DB6F</title><g fill="none" opacity=".2"><ellipse fill="#FFF" cx="17.563" cy="17.501" rx="15.448" ry="15.527"/><path d="M17.38.27c4.794 0 8.877 1.682 12.244 5.046a16.577 16.577 0 0 1 3.673 5.553c.837 2.083 1.256 4.292 1.256 6.631 0 2.359-.414 4.57-1.24 6.63a15.823 15.823 0 0 1-3.657 5.462 17.611 17.611 0 0 1-5.695 3.815 16.99 16.99 0 0 1-6.58 1.323c-2.266 0-4.434-.435-6.506-1.308-2.071-.87-3.928-2.133-5.571-3.783-1.643-1.651-2.893-3.513-3.75-5.585A16.973 16.973 0 0 1 .268 17.5c0-2.277.433-4.467 1.3-6.57.868-2.102 2.128-3.984 3.781-5.646C8.614 1.942 12.624.27 17.38.27zm.061 3.107c-3.918 0-7.214 1.375-9.888 4.123a14.819 14.819 0 0 0-3.107 4.631 13.631 13.631 0 0 0-1.087 5.37c0 1.846.362 3.626 1.087 5.337a14.278 14.278 0 0 0 3.107 4.586 14.123 14.123 0 0 0 4.562 3.077 13.681 13.681 0 0 0 5.326 1.061c1.837 0 3.616-.358 5.343-1.076a14.8 14.8 0 0 0 4.668-3.107c2.673-2.626 4.009-5.918 4.009-9.878 0-1.908-.347-3.713-1.041-5.415a13.782 13.782 0 0 0-3.029-4.555c-2.757-2.769-6.072-4.154-9.95-4.154zm-.215 11.262l-2.296 1.2c-.246-.512-.546-.871-.903-1.077-.357-.204-.689-.307-.995-.307-1.53 0-2.296 1.015-2.296 3.046 0 .923.194 1.66.581 2.215.388.554.96.831 1.715.831 1 0 1.704-.493 2.113-1.477l2.111 1.077a5.052 5.052 0 0 1-1.867 1.985 4.978 4.978 0 0 1-2.633.723c-1.53 0-2.765-.471-3.704-1.416-.939-.943-1.408-2.256-1.408-3.937 0-1.642.475-2.944 1.424-3.908.948-.964 2.147-1.446 3.597-1.446 2.123-.001 3.643.83 4.561 2.491zm9.888 0l-2.265 1.2c-.245-.512-.547-.871-.904-1.077-.358-.204-.7-.307-1.025-.307-1.53 0-2.297 1.015-2.297 3.046 0 .923.195 1.66.582 2.215.388.554.959.831 1.715.831 1 0 1.704-.493 2.111-1.477l2.143 1.077a5.278 5.278 0 0 1-1.897 1.985 4.927 4.927 0 0 1-2.602.723c-1.551 0-2.79-.471-3.718-1.416-.93-.943-1.394-2.256-1.394-3.937 0-1.642.474-2.944 1.424-3.908.948-.964 2.147-1.446 3.596-1.446 2.123-.001 3.634.83 4.531 2.491z" fill="#000"/><g transform="translate(40.179)"><ellipse fill="#FFF" cx="17.484" cy="17.665" rx="15.148" ry="15.226"/><path d="M17.38.27c4.815 0 8.877 1.66 12.183 4.984 3.326 3.344 4.99 7.426 4.99 12.246 0 4.841-1.633 8.872-4.899 12.092-3.469 3.426-7.56 5.139-12.274 5.139-4.633 0-8.653-1.693-12.06-5.078C1.951 26.268.267 22.218.267 17.5c0-4.717 1.684-8.8 5.051-12.246C8.626 1.93 12.645.27 17.38.27zm.061 3.107c-3.898 0-7.193 1.375-9.887 4.123-2.797 2.872-4.195 6.206-4.195 10 0 3.816 1.388 7.119 4.163 9.907 2.775 2.79 6.081 4.185 9.918 4.185 3.816 0 7.143-1.404 9.98-4.216 2.694-2.605 4.04-5.897 4.04-9.877 0-3.917-1.367-7.25-4.1-10-2.735-2.748-6.041-4.122-9.919-4.122zm4.592 9.846v7.046h-1.958v8.369h-5.327v-8.369h-1.959v-7.046c0-.308.107-.57.321-.785.215-.214.475-.323.78-.323h7.042c.286 0 .541.108.765.323.223.216.336.478.336.785zm-7.01-4.43c0-1.62.795-2.431 2.388-2.431 1.592 0 2.387.81 2.387 2.43 0 1.6-.796 2.4-2.387 2.4-1.592 0-2.389-.8-2.389-2.4z" fill="#000"/></g></g></svg>