<svg width="42" height="34" viewBox="0 0 42 34" xmlns="http://www.w3.org/2000/svg"><title>2B498920-BFBC-4AB7-B411-23FB783EF561</title><path d="M38.765 25.53c.9.89 1.805 1.775 2.703 2.667.696.69.692 1.446-.007 2.14-1.047 1.038-2.101 2.068-3.144 3.11a1.6 1.6 0 0 1-1.197.493c-10.764-.005-21.529-.005-32.293 0-.45 0-.81-.154-1.123-.464-1.076-1.068-2.16-2.128-3.234-3.198-.634-.63-.625-1.409.018-2.051 1.002-1.002 2.011-1.997 3.07-3.047-1.019-.998-2.015-1.968-3.005-2.943-.737-.726-.737-1.467.005-2.197.99-.975 1.99-1.942 3.004-2.932-.128-.14-.214-.242-.309-.335-.919-.91-1.843-1.816-2.758-2.73-.659-.657-.66-1.42.004-2.08 1.006-.998 2.024-1.985 3.11-3.047-.35-.318-.673-.597-.979-.893A233.909 233.909 0 0 1 .55 5.973c-.734-.73-.729-1.463.013-2.199C1.608 2.736 2.668 1.71 3.702.66 4.1.254 4.545.082 5.117.083 10.83.095 16.54.09 22.251.09c4.885 0 9.77.006 14.656-.006.543 0 .968.162 1.346.543 1.068 1.076 2.153 2.134 3.229 3.202.673.67.67 1.436-.008 2.112-.996.99-1.995 1.976-3.025 2.996.106.11.205.218.31.321.82.813 1.61 1.656 2.469 2.428.994.893.98 1.759-.016 2.658-.95.857-1.83 1.787-2.769 2.712.116.123.214.233.319.337.858.853 1.718 1.704 2.577 2.556.858.85.862 1.537.011 2.376l-2.905 2.867c.115.122.214.234.32.338zm-18.927-3.384v-2.511l-6.754-2.39 6.754-2.432v-2.511l-9.14 3.616v2.612l9.14 3.616zm4.825 2.21l4.793-14.204h-2.528l-4.792 14.204h2.527z" fill="#74479C" fill-rule="evenodd"/></svg>
